<?xml version="1.0" encoding="UTF-8"?>
<svg id="Layer_1" data-name="Layer 1" xmlns="http://www.w3.org/2000/svg" viewBox="0 0 780 100">
  <defs>
    <style>
      .cls-1 {
        fill: #fff;
        stroke-width: 0px;
      }
    </style>
  </defs>
  <g>
    <path class="cls-1" d="m37.85,53.56v10.54h-3.8v-28.18h8.32c1.78,0,3.33.21,4.65.62s2.41,1,3.27,1.76c.87.76,1.51,1.68,1.94,2.75.43,1.07.64,2.27.64,3.6s-.23,2.51-.69,3.6c-.46,1.09-1.13,2.03-2.02,2.81s-1.98,1.4-3.29,1.84c-1.31.44-2.81.66-4.5.66h-4.52Zm0-3.03h4.52c1.09,0,2.05-.14,2.88-.43.83-.29,1.53-.69,2.09-1.21.56-.52.99-1.14,1.28-1.86.29-.72.43-1.51.43-2.38,0-1.8-.55-3.2-1.66-4.21s-2.78-1.51-5.02-1.51h-4.52v11.6Z"/>
    <path class="cls-1" d="m89.36,50.02c0,2.11-.33,4.05-1,5.81-.67,1.76-1.61,3.28-2.83,4.55-1.22,1.27-2.68,2.26-4.39,2.96-1.71.7-3.6,1.05-5.67,1.05s-3.96-.35-5.66-1.05-3.17-1.69-4.38-2.96c-1.22-1.27-2.16-2.79-2.83-4.55-.67-1.76-1-3.7-1-5.81s.33-4.05,1-5.81c.67-1.76,1.61-3.28,2.83-4.56,1.22-1.28,2.68-2.27,4.38-2.98s3.59-1.06,5.66-1.06,3.96.35,5.67,1.06c1.71.71,3.18,1.7,4.39,2.98,1.22,1.28,2.16,2.8,2.83,4.56.67,1.76,1,3.7,1,5.81Zm-3.91,0c0-1.73-.24-3.28-.71-4.66-.47-1.38-1.14-2.54-2.01-3.49-.87-.95-1.91-1.68-3.15-2.19-1.23-.51-2.61-.77-4.13-.77s-2.88.26-4.11.77c-1.23.51-2.28,1.24-3.16,2.19-.87.95-1.54,2.11-2.02,3.49-.47,1.38-.71,2.93-.71,4.66s.24,3.28.71,4.65c.47,1.37,1.14,2.53,2.02,3.48.87.95,1.92,1.68,3.16,2.18,1.23.5,2.6.76,4.11.76s2.9-.25,4.13-.76c1.23-.5,2.28-1.23,3.15-2.18.87-.95,1.53-2.11,2.01-3.48.47-1.37.71-2.92.71-4.65Z"/>
    <path class="cls-1" d="m96.19,35.92h3.17c.34,0,.62.09.85.26.22.17.37.39.45.65l5.82,19.58c.1.35.2.73.29,1.14s.17.83.25,1.28c.09-.45.18-.88.27-1.29s.2-.79.31-1.13l6.63-19.58c.08-.22.23-.43.46-.62.23-.19.51-.28.84-.28h1.1c.34,0,.62.09.84.26s.37.39.46.65l6.59,19.58c.24.68.45,1.46.63,2.34.08-.43.15-.85.22-1.24s.15-.76.26-1.1l5.84-19.58c.07-.24.21-.45.44-.63s.51-.28.84-.28h2.97l-8.79,28.18h-3.42l-7.14-21.49c-.14-.41-.27-.88-.39-1.42-.07.26-.13.51-.19.76-.06.24-.12.46-.19.66l-7.18,21.49h-3.42l-8.79-28.18Z"/>
    <path class="cls-1" d="m162.19,35.92v3.11h-13.53v9.36h10.95v2.99h-10.95v9.61h13.53v3.11h-17.36v-28.18h17.36Z"/>
    <path class="cls-1" d="m176.26,52.34v11.76h-3.8v-28.18h7.96c1.78,0,3.32.18,4.62.54,1.3.36,2.37.88,3.21,1.56.84.68,1.47,1.5,1.88,2.47.41.96.61,2.04.61,3.23,0,1-.16,1.93-.47,2.79-.31.87-.77,1.64-1.37,2.33-.6.69-1.32,1.28-2.18,1.76-.86.48-1.83.85-2.92,1.1.47.28.89.68,1.26,1.2l8.22,11.19h-3.38c-.69,0-1.21-.27-1.53-.81l-7.31-10.07c-.22-.31-.47-.54-.73-.68-.26-.14-.66-.21-1.18-.21h-2.89Zm0-2.77h3.99c1.11,0,2.09-.13,2.94-.4.84-.27,1.55-.65,2.12-1.14.57-.49,1-1.08,1.29-1.76.29-.68.43-1.44.43-2.26,0-1.68-.55-2.94-1.66-3.79-1.11-.85-2.76-1.28-4.94-1.28h-4.17v10.64Z"/>
    <path class="cls-1" d="m219.97,35.92v3.11h-13.53v9.36h10.95v2.99h-10.95v9.61h13.53v3.11h-17.36v-28.18h17.36Z"/>
    <path class="cls-1" d="m254.49,50.02c0,2.11-.33,4.03-1,5.76-.67,1.73-1.61,3.21-2.83,4.44s-2.68,2.19-4.38,2.86c-1.7.68-3.59,1.01-5.66,1.01h-10.54v-28.18h10.54c2.07,0,3.96.34,5.66,1.01,1.7.68,3.17,1.63,4.38,2.87,1.22,1.24,2.16,2.72,2.83,4.45.67,1.73,1,3.65,1,5.76Zm-3.91,0c0-1.73-.24-3.28-.71-4.64s-1.14-2.52-2.01-3.46c-.87-.94-1.91-1.66-3.15-2.16-1.23-.5-2.6-.75-4.11-.75h-6.7v22h6.7c1.51,0,2.88-.25,4.11-.75,1.23-.5,2.28-1.22,3.15-2.15.87-.94,1.53-2.09,2.01-3.45.47-1.36.71-2.91.71-4.64Z"/>
    <path class="cls-1" d="m279.06,64.1v-28.18h8.99c1.73,0,3.22.17,4.47.51,1.25.34,2.28.83,3.09,1.46s1.4,1.4,1.79,2.31c.39.91.58,1.94.58,3.08,0,.7-.11,1.36-.32,2.01-.22.64-.54,1.24-.98,1.79-.44.55-.99,1.04-1.65,1.47s-1.44.79-2.33,1.06c2.06.41,3.61,1.15,4.66,2.22,1.05,1.07,1.57,2.49,1.57,4.25,0,1.19-.22,2.28-.66,3.26-.44.98-1.08,1.83-1.93,2.54-.84.71-1.88,1.26-3.11,1.64s-2.62.58-4.2.58h-9.97Zm3.82-15.55h5.03c1.07,0,2.01-.12,2.79-.35.79-.24,1.44-.56,1.96-.98s.9-.93,1.15-1.52c.25-.6.37-1.25.37-1.96,0-1.65-.5-2.86-1.49-3.64-1-.77-2.54-1.16-4.64-1.16h-5.17v9.61Zm0,2.71v9.81h6.1c1.09,0,2.02-.12,2.8-.37.78-.25,1.42-.6,1.93-1.05s.87-.99,1.11-1.61c.24-.62.35-1.31.35-2.05,0-1.46-.51-2.61-1.54-3.45s-2.59-1.27-4.67-1.27h-6.08Z"/>
    <path class="cls-1" d="m319.64,52.89v11.21h-3.8v-11.21l-10.32-16.97h3.34c.34,0,.61.09.81.26s.37.38.51.63l6.45,10.95c.26.46.48.89.66,1.3.18.41.34.81.48,1.2.14-.41.3-.81.47-1.22.17-.41.39-.83.65-1.28l6.43-10.95c.12-.21.28-.41.48-.6.2-.19.47-.28.8-.28h3.38l-10.34,16.97Z"/>
  </g>
  <g>
    <g>
      <path class="cls-1" d="m416.95,25.17c-.25-.63.21-1.32.89-1.32h8.48c1.07,0,1.94.24,2.62.73.68.49,1.16,1.13,1.46,1.93l10.27,28.4c.46,1.24.93,2.59,1.4,4.04.47,1.46.92,2.99,1.33,4.59.34-1.6.73-3.13,1.18-4.59.45-1.46.89-2.8,1.33-4.04l10.2-28.4c.24-.68.72-1.29,1.42-1.84.7-.55,1.57-.82,2.58-.82h8.55c.68,0,1.15.69.89,1.32l-20.49,51.13c-.15.37-.5.61-.89.61h-9.84c-.39,0-.75-.24-.89-.61l-20.49-51.13Z"/>
      <path class="cls-1" d="m569.48,24.81v7.83c0,.53-.43.96-.96.96h-13.97v42.33c0,.53-.43.96-.96.96h-10.38c-.53,0-.96-.43-.96-.96v-42.33h-13.97c-.53,0-.96-.43-.96-.96v-7.83c0-.53.43-.96.96-.96h40.24c.53,0,.96.43.96.96Z"/>
      <path class="cls-1" d="m609.51,24.81v7.54c0,.53-.43.96-.96.96h-20.81v12.38h15.71c.53,0,.96.43.96.96v7.18c0,.53-.43.96-.96.96h-15.71v12.64h20.81c.53,0,.96.43.96.96v7.54c0,.53-.43.96-.96.96h-32.23c-.53,0-.96-.43-.96-.96V24.81c0-.53.43-.96.96-.96h32.23c.53,0,.96.43.96.96Z"/>
      <g>
        <path class="cls-1" d="m525.25,50.35c0,3.83-.66,7.41-1.97,10.7-1.34,3.31-3.17,6.15-5.58,8.62-2.41,2.43-5.28,4.35-8.67,5.74-3.39,1.37-7.14,2.08-11.27,2.08s-7.88-.68-11.27-2.08-6.32-3.31-8.73-5.74c-2.41-2.43-4.27-5.31-5.61-8.62-1.31-3.31-1.97-6.87-1.97-10.7s.66-7.41,1.97-10.7c1.34-3.31,3.2-6.15,5.61-8.59,2.41-2.41,5.31-4.32,8.73-5.72,3.39-1.37,7.14-2.08,11.27-2.08s7.69.66,10.97,2c-1.81,2.41-3.83,5.66-5.72,8.94-1.59-.52-3.34-.79-5.25-.79-2.38,0-4.49.38-6.35,1.15-1.86.79-3.42,1.89-4.7,3.34-1.29,1.45-2.24,3.23-2.93,5.33-.68,2.08-1.01,4.46-1.01,7.06s.33,5.01,1.01,7.11c.68,2.11,1.67,3.88,2.93,5.33,1.29,1.45,2.84,2.57,4.7,3.31,1.86.77,3.97,1.15,6.35,1.15s4.46-.38,6.29-1.15c1.86-.77,3.39-1.89,4.68-3.31,1.29-1.45,2.24-3.23,2.93-5.33.68-2.11,1.01-4.46,1.01-7.11s-.33-4.98-1.01-7.06c-.03-.05-.05-.14-.08-.19,1.97-4.08,3.91-7.88,5.33-10.72.25-.49.47-.93.68-1.34.03.03.05.05.08.08,2.41,2.41,4.27,5.28,5.58,8.59,1.34,3.36,2,6.89,2,10.7Z"/>
        <path class="cls-1" d="m517.97,26.63c-.16.47-.63,1.4-1.59,3.28-.27.52-.55,1.09-.88,1.75-1.29,2.54-2.95,5.85-4.73,9.44-3.31,6.78-6.92,14.58-8.81,20.16-.52,1.53-2.02,2.41-4.16,2.41h-.08c-1.04-.03-3.56-.27-4.19-2.3-2.93-9.46-5.77-14.31-6.56-15.56-1.15-1.81-.63-3.5.38-4.38.57-.49,1.29-.74,2.02-.74.98,0,2.08.44,3.01,1.23,1.45,1.29,3.45,3.83,4.95,6.29,1.83-3.67,4.49-8.78,7.19-13.43,2-3.47,4.02-6.67,5.72-8.89.9-1.15,1.7-2.05,2.38-2.57.82-.63,1.72-.96,2.6-.96.68,0,1.34.19,1.86.6,1.04.88,1.4,2.27.88,3.67Z"/>
      </g>
    </g>
    <g>
      <path class="cls-1" d="m624.25,55.66v20.72c0,.38-.31.69-.69.69h-2.46c-.38,0-.69-.31-.69-.69V24.61c0-.38.31-.69.69-.69h13.02c6.24,0,10.94,1.36,14.1,4.09,3.17,2.73,4.75,6.62,4.75,11.68,0,2.33-.43,4.47-1.29,6.42s-2.11,3.64-3.74,5.05c-1.63,1.41-3.61,2.52-5.93,3.31-2.33.79-4.96,1.18-7.89,1.18h-9.88Zm0-3.08h9.88c2.35,0,4.46-.32,6.31-.98,1.85-.65,3.42-1.55,4.71-2.7,1.29-1.15,2.28-2.51,2.97-4.07.69-1.56,1.03-3.27,1.03-5.13,0-4.08-1.26-7.22-3.77-9.43-2.52-2.2-6.27-3.31-11.25-3.31h-9.88v25.61Z"/>
      <path class="cls-1" d="m662.42,53.03v23.35c0,.38-.31.69-.69.69h-2.46c-.38,0-.69-.31-.69-.69V24.61c0-.38.31-.69.69-.69h12.87c6.13,0,10.72,1.18,13.75,3.55,3.03,2.37,4.54,5.84,4.54,10.42,0,2.03-.35,3.88-1.05,5.56-.7,1.68-1.71,3.15-3.02,4.41-1.31,1.26-2.9,2.3-4.75,3.12-1.85.81-3.94,1.35-6.27,1.6.6.38,1.14.88,1.62,1.5l18.29,22.99h-3.34c-.4,0-.74-.08-1.03-.23s-.57-.4-.85-.75l-17.01-21.56c-.43-.55-.88-.94-1.37-1.16s-1.25-.34-2.27-.34h-6.95Zm0-2.85h9.24c2.35,0,4.46-.28,6.33-.85s3.44-1.37,4.73-2.42c1.29-1.05,2.27-2.32,2.95-3.79.68-1.48,1.01-3.14,1.01-5,0-3.78-1.24-6.58-3.72-8.41-2.48-1.83-6.08-2.74-10.82-2.74h-9.73v23.21Z"/>
      <path class="cls-1" d="m745.95,50.48c0,4.11-.61,7.83-1.84,11.17-1.23,3.34-2.95,6.2-5.18,8.56-2.23,2.37-4.9,4.19-8,5.48-3.11,1.29-6.55,1.93-10.33,1.93s-7.15-.64-10.25-1.93c-3.11-1.29-5.77-3.12-8-5.48-2.23-2.37-3.96-5.22-5.2-8.56-1.24-3.34-1.86-7.07-1.86-11.17s.62-7.79,1.86-11.14c1.24-3.34,2.97-6.2,5.2-8.56,2.23-2.37,4.89-4.2,8-5.5,3.1-1.3,6.52-1.95,10.25-1.95s7.22.65,10.33,1.93c3.1,1.29,5.77,3.12,8,5.5,2.23,2.38,3.96,5.24,5.18,8.58,1.23,3.34,1.84,7.05,1.84,11.14Zm-3.98,0c0-3.71-.51-7.04-1.54-9.99-1.03-2.95-2.47-5.46-4.34-7.51-1.87-2.05-4.11-3.62-6.74-4.71-2.63-1.09-5.55-1.63-8.75-1.63s-6.04.54-8.66,1.63c-2.62,1.09-4.87,2.66-6.76,4.71-1.89,2.05-3.36,4.56-4.4,7.51-1.04,2.95-1.56,6.28-1.56,9.99s.52,7.07,1.56,10.01c1.04,2.94,2.5,5.44,4.4,7.49,1.89,2.05,4.14,3.62,6.76,4.69,2.62,1.08,5.5,1.61,8.66,1.61s6.12-.54,8.75-1.61c2.63-1.08,4.88-2.64,6.74-4.69,1.87-2.05,3.31-4.55,4.34-7.49,1.03-2.94,1.54-6.28,1.54-10.01Z"/>
    </g>
    <g>
      <path class="cls-1" d="m416.48,42.07h-23.03c-.41,0-.75-.34-.75-.75v-5.01c0-.41.34-.75.75-.75h21.03c.31,0,.58.19.7.47l2,5.01c.2.49-.17,1.03-.7,1.03Z"/>
      <path class="cls-1" d="m421.13,53.68h-27.68c-.41,0-.75-.34-.75-.75v-5.01c0-.41.34-.75.75-.75h25.68c.31,0,.58.19.7.47l2,5.01c.2.49-.17,1.03-.7,1.03Z"/>
      <path class="cls-1" d="m411.81,30.45h-18.37c-.41,0-.75-.34-.75-.75v-4.99c0-.41.34-.75.75-.75h16.37c.31,0,.58.19.7.47l2,4.99c.2.49-.17,1.03-.7,1.03Z"/>
      <rect class="cls-1" x="357.42" y="23.95" width="30.47" height="29.73" rx="1.15" ry="1.15"/>
      <path class="cls-1" d="m430.44,76.89h-72.28c-.41,0-.75-.34-.75-.75v-5.01c0-.41.34-.75.75-.75h70.28c.31,0,.58.19.7.47l2,5.01c.2.49-.17,1.03-.7,1.03Z"/>
      <path class="cls-1" d="m425.79,65.28h-67.63c-.41,0-.75-.34-.75-.75v-5.01c0-.41.34-.75.75-.75h65.63c.31,0,.58.19.7.47l2,5.01c.2.49-.17,1.03-.7,1.03Z"/>
    </g>
  </g>
</svg>